<?xml version="1.0" encoding="UTF-8"?>
<!DOCTYPE svg>
<svg width="1800.0" height="400.0" xmlns="http://www.w3.org/2000/svg">
	<rect fill="#fff" stroke="#000" x="0" y="0" width="1800.0" height="400.0"/>
	<text y="50.0" x="25.0">l1</text>
	<line x1="58.064516129032256" y1="50.0" x2="1750.0" y2="50.0" stroke="black" stroke-width="2" />
	<text y="100.0" x="25.0">a1</text>
	<line x1="58.064516129032256" y1="100.0" x2="1750.0" y2="100.0" stroke="black" stroke-width="2" />
	<text y="150.0" x="25.0">a2</text>
	<line x1="58.064516129032256" y1="150.0" x2="1750.0" y2="150.0" stroke="black" stroke-width="2" />
	<text y="200.0" x="25.0">a3</text>
	<line x1="58.064516129032256" y1="200.0" x2="1750.0" y2="200.0" stroke="black" stroke-width="2" />
	<text y="250.0" x="25.0">r1</text>
	<line x1="58.064516129032256" y1="250.0" x2="1750.0" y2="250.0" stroke="black" stroke-width="2" />
	<text y="300.0" x="25.0">r2</text>
	<line x1="58.064516129032256" y1="300.0" x2="1750.0" y2="300.0" stroke="black" stroke-width="2" />
	<text y="350.0" x="25.0">r3</text>
	<line x1="58.064516129032256" y1="350.0" x2="1750.0" y2="350.0" stroke="black" stroke-width="2" />

	<line x1="58.064516129032256" y1="50.0" x2="174.19354838709677" y2="100.0" stroke="black" stroke-width="1.0" />
	 <line x1="168.38709677419354" y1="90.0" x2="174.19354838709677" y2="100.0" stroke="black" stroke-width="1.0" />
	 <line x1="150.96774193548387" y1="98.0" x2="174.19354838709677" y2="100.0" stroke="black" stroke-width="1.0" />
	<line x1="58.064516129032256" y1="50.0" x2="348.38709677419354" y2="150.0" stroke="black" stroke-width="1.0" />
	 <line x1="342.5806451612903" y1="140.0" x2="348.38709677419354" y2="150.0" stroke="black" stroke-width="1.0" />
	 <line x1="325.1612903225806" y1="148.0" x2="348.38709677419354" y2="150.0" stroke="black" stroke-width="1.0" />
	<line x1="58.064516129032256" y1="50.0" x2="435.48387096774195" y2="200.0" stroke="black" stroke-width="1.0" />
	 <line x1="429.6774193548387" y1="190.0" x2="435.48387096774195" y2="200.0" stroke="black" stroke-width="1.0" />
	 <line x1="412.258064516129" y1="198.0" x2="435.48387096774195" y2="200.0" stroke="black" stroke-width="1.0" />
	<line x1="58.064516129032256" y1="250.0" x2="87.09677419354838" y2="50.0" stroke="black" stroke-width="1.0" />
	 <line x1="81.29032258064515" y1="60.0" x2="87.09677419354838" y2="50.0" stroke="black" stroke-width="1.0" />
	 <line x1="63.87096774193549" y1="52.0" x2="87.09677419354838" y2="50.0" stroke="black" stroke-width="1.0" />
	<line x1="58.064516129032256" y1="250.0" x2="87.09677419354838" y2="50.0" stroke="black" stroke-width="1.0" />
	 <line x1="81.29032258064515" y1="60.0" x2="87.09677419354838" y2="50.0" stroke="black" stroke-width="1.0" />
	 <line x1="63.87096774193549" y1="52.0" x2="87.09677419354838" y2="50.0" stroke="black" stroke-width="1.0" />
	<line x1="174.19354838709677" y1="100.0" x2="261.2903225806451" y2="50.0" stroke="black" stroke-width="1.0" />
	 <line x1="255.48387096774195" y1="60.0" x2="261.2903225806451" y2="50.0" stroke="black" stroke-width="1.0" />
	 <line x1="238.06451612903223" y1="52.0" x2="261.2903225806451" y2="50.0" stroke="black" stroke-width="1.0" />
	<line x1="203.2258064516129" y1="250.0" x2="493.54838709677415" y2="50.0" stroke="black" stroke-width="1.0" />
	 <line x1="487.741935483871" y1="60.0" x2="493.54838709677415" y2="50.0" stroke="black" stroke-width="1.0" />
	 <line x1="470.3225806451613" y1="52.0" x2="493.54838709677415" y2="50.0" stroke="black" stroke-width="1.0" />
	<line x1="232.25806451612902" y1="250.0" x2="609.6774193548387" y2="50.0" stroke="black" stroke-width="1.0" />
	 <line x1="603.8709677419355" y1="60.0" x2="609.6774193548387" y2="50.0" stroke="black" stroke-width="1.0" />
	 <line x1="586.4516129032257" y1="52.0" x2="609.6774193548387" y2="50.0" stroke="black" stroke-width="1.0" />
	<line x1="348.38709677419354" y1="150.0" x2="377.41935483870964" y2="50.0" stroke="black" stroke-width="1.0" />
	 <line x1="371.61290322580646" y1="60.0" x2="377.41935483870964" y2="50.0" stroke="black" stroke-width="1.0" />
	 <line x1="354.19354838709677" y1="52.0" x2="377.41935483870964" y2="50.0" stroke="black" stroke-width="1.0" />
	<line x1="377.41935483870964" y1="50.0" x2="580.6451612903226" y2="100.0" stroke="black" stroke-width="1.0" />
	 <line x1="574.8387096774194" y1="90.0" x2="580.6451612903226" y2="100.0" stroke="black" stroke-width="1.0" />
	 <line x1="557.4193548387096" y1="98.0" x2="580.6451612903226" y2="100.0" stroke="black" stroke-width="1.0" />
	<line x1="377.41935483870964" y1="50.0" x2="900.0" y2="150.0" stroke="black" stroke-width="1.0" />
	 <line x1="894.1935483870967" y1="140.0" x2="900.0" y2="150.0" stroke="black" stroke-width="1.0" />
	 <line x1="876.7741935483871" y1="148.0" x2="900.0" y2="150.0" stroke="black" stroke-width="1.0" />
	<line x1="377.41935483870964" y1="50.0" x2="870.9677419354839" y2="200.0" stroke="black" stroke-width="1.0" />
	 <line x1="865.1612903225806" y1="190.0" x2="870.9677419354839" y2="200.0" stroke="black" stroke-width="1.0" />
	 <line x1="847.741935483871" y1="198.0" x2="870.9677419354839" y2="200.0" stroke="black" stroke-width="1.0" />
	<line x1="377.41935483870964" y1="50.0" x2="841.9354838709677" y2="100.0" stroke="black" stroke-width="1.0" />
	 <line x1="836.1290322580645" y1="90.0" x2="841.9354838709677" y2="100.0" stroke="black" stroke-width="1.0" />
	 <line x1="818.7096774193548" y1="98.0" x2="841.9354838709677" y2="100.0" stroke="black" stroke-width="1.0" />
	<line x1="377.41935483870964" y1="50.0" x2="638.7096774193549" y2="150.0" stroke="black" stroke-width="1.0" />
	 <line x1="632.9032258064516" y1="140.0" x2="638.7096774193549" y2="150.0" stroke="black" stroke-width="1.0" />
	 <line x1="615.483870967742" y1="148.0" x2="638.7096774193549" y2="150.0" stroke="black" stroke-width="1.0" />
	<line x1="377.41935483870964" y1="50.0" x2="812.9032258064516" y2="200.0" stroke="black" stroke-width="1.0" />
	 <line x1="807.0967741935484" y1="190.0" x2="812.9032258064516" y2="200.0" stroke="black" stroke-width="1.0" />
	 <line x1="789.6774193548387" y1="198.0" x2="812.9032258064516" y2="200.0" stroke="black" stroke-width="1.0" />
	<line x1="435.48387096774195" y1="200.0" x2="696.7741935483871" y2="50.0" stroke="black" stroke-width="1.0" />
	 <line x1="690.9677419354839" y1="60.0" x2="696.7741935483871" y2="50.0" stroke="black" stroke-width="1.0" />
	 <line x1="673.5483870967741" y1="52.0" x2="696.7741935483871" y2="50.0" stroke="black" stroke-width="1.0" />
	<line x1="493.54838709677415" y1="50.0" x2="783.8709677419355" y2="100.0" stroke="black" stroke-width="1.0" />
	 <line x1="778.0645161290322" y1="90.0" x2="783.8709677419355" y2="100.0" stroke="black" stroke-width="1.0" />
	 <line x1="760.6451612903226" y1="98.0" x2="783.8709677419355" y2="100.0" stroke="black" stroke-width="1.0" />
	<line x1="493.54838709677415" y1="50.0" x2="870.9677419354839" y2="150.0" stroke="black" stroke-width="1.0" />
	 <line x1="865.1612903225806" y1="140.0" x2="870.9677419354839" y2="150.0" stroke="black" stroke-width="1.0" />
	 <line x1="847.741935483871" y1="148.0" x2="870.9677419354839" y2="150.0" stroke="black" stroke-width="1.0" />
	<line x1="493.54838709677415" y1="50.0" x2="696.7741935483871" y2="200.0" stroke="black" stroke-width="1.0" />
	 <line x1="690.9677419354839" y1="190.0" x2="696.7741935483871" y2="200.0" stroke="black" stroke-width="1.0" />
	 <line x1="673.5483870967741" y1="198.0" x2="696.7741935483871" y2="200.0" stroke="black" stroke-width="1.0" />
	<line x1="580.6451612903226" y1="100.0" x2="754.8387096774193" y2="50.0" stroke="black" stroke-width="1.0" />
	 <line x1="749.0322580645161" y1="60.0" x2="754.8387096774193" y2="50.0" stroke="black" stroke-width="1.0" />
	 <line x1="731.6129032258065" y1="52.0" x2="754.8387096774193" y2="50.0" stroke="black" stroke-width="1.0" />
	<line x1="609.6774193548387" y1="50.0" x2="812.9032258064516" y2="100.0" stroke="black" stroke-width="1.0" />
	 <line x1="807.0967741935484" y1="90.0" x2="812.9032258064516" y2="100.0" stroke="black" stroke-width="1.0" />
	 <line x1="789.6774193548387" y1="98.0" x2="812.9032258064516" y2="100.0" stroke="black" stroke-width="1.0" />
	<line x1="609.6774193548387" y1="50.0" x2="812.9032258064516" y2="150.0" stroke="black" stroke-width="1.0" />
	 <line x1="807.0967741935484" y1="140.0" x2="812.9032258064516" y2="150.0" stroke="black" stroke-width="1.0" />
	 <line x1="789.6774193548387" y1="148.0" x2="812.9032258064516" y2="150.0" stroke="black" stroke-width="1.0" />
	<line x1="609.6774193548387" y1="50.0" x2="1074.1935483870968" y2="200.0" stroke="black" stroke-width="1.0" />
	 <line x1="1068.3870967741934" y1="190.0" x2="1074.1935483870968" y2="200.0" stroke="black" stroke-width="1.0" />
	 <line x1="1050.967741935484" y1="198.0" x2="1074.1935483870968" y2="200.0" stroke="black" stroke-width="1.0" />
	<line x1="638.7096774193549" y1="150.0" x2="812.9032258064516" y2="50.0" stroke="black" stroke-width="1.0" />
	 <line x1="807.0967741935484" y1="60.0" x2="812.9032258064516" y2="50.0" stroke="black" stroke-width="1.0" />
	 <line x1="789.6774193548387" y1="52.0" x2="812.9032258064516" y2="50.0" stroke="black" stroke-width="1.0" />
	<line x1="696.7741935483871" y1="200.0" x2="870.9677419354839" y2="50.0" stroke="black" stroke-width="1.0" />
	 <line x1="865.1612903225806" y1="60.0" x2="870.9677419354839" y2="50.0" stroke="black" stroke-width="1.0" />
	 <line x1="847.741935483871" y1="52.0" x2="870.9677419354839" y2="50.0" stroke="black" stroke-width="1.0" />
	<line x1="783.8709677419355" y1="100.0" x2="1103.225806451613" y2="50.0" stroke="black" stroke-width="1.0" />
	 <line x1="1097.4193548387095" y1="60.0" x2="1103.225806451613" y2="50.0" stroke="black" stroke-width="1.0" />
	 <line x1="1080.0" y1="52.0" x2="1103.225806451613" y2="50.0" stroke="black" stroke-width="1.0" />
	<line x1="812.9032258064516" y1="200.0" x2="1045.1612903225805" y2="50.0" stroke="black" stroke-width="1.0" />
	 <line x1="1039.3548387096773" y1="60.0" x2="1045.1612903225805" y2="50.0" stroke="black" stroke-width="1.0" />
	 <line x1="1021.9354838709678" y1="52.0" x2="1045.1612903225805" y2="50.0" stroke="black" stroke-width="1.0" />
	<line x1="812.9032258064516" y1="100.0" x2="1103.225806451613" y2="50.0" stroke="black" stroke-width="1.0" />
	 <line x1="1097.4193548387095" y1="60.0" x2="1103.225806451613" y2="50.0" stroke="black" stroke-width="1.0" />
	 <line x1="1080.0" y1="52.0" x2="1103.225806451613" y2="50.0" stroke="black" stroke-width="1.0" />
	<line x1="812.9032258064516" y1="150.0" x2="841.9354838709677" y2="50.0" stroke="black" stroke-width="1.0" />
	 <line x1="836.1290322580645" y1="60.0" x2="841.9354838709677" y2="50.0" stroke="black" stroke-width="1.0" />
	 <line x1="818.7096774193548" y1="52.0" x2="841.9354838709677" y2="50.0" stroke="black" stroke-width="1.0" />
	<line x1="841.9354838709677" y1="100.0" x2="1219.3548387096773" y2="50.0" stroke="black" stroke-width="1.0" />
	 <line x1="1213.5483870967741" y1="60.0" x2="1219.3548387096773" y2="50.0" stroke="black" stroke-width="1.0" />
	 <line x1="1196.1290322580646" y1="52.0" x2="1219.3548387096773" y2="50.0" stroke="black" stroke-width="1.0" />
	<line x1="870.9677419354839" y1="200.0" x2="1045.1612903225805" y2="50.0" stroke="black" stroke-width="1.0" />
	 <line x1="1039.3548387096773" y1="60.0" x2="1045.1612903225805" y2="50.0" stroke="black" stroke-width="1.0" />
	 <line x1="1021.9354838709678" y1="52.0" x2="1045.1612903225805" y2="50.0" stroke="black" stroke-width="1.0" />
	<line x1="870.9677419354839" y1="150.0" x2="1161.2903225806451" y2="50.0" stroke="black" stroke-width="1.0" />
	 <line x1="1155.4838709677417" y1="60.0" x2="1161.2903225806451" y2="50.0" stroke="black" stroke-width="1.0" />
	 <line x1="1138.0645161290322" y1="52.0" x2="1161.2903225806451" y2="50.0" stroke="black" stroke-width="1.0" />
	<line x1="900.0" y1="150.0" x2="1161.2903225806451" y2="50.0" stroke="black" stroke-width="1.0" />
	 <line x1="1155.4838709677417" y1="60.0" x2="1161.2903225806451" y2="50.0" stroke="black" stroke-width="1.0" />
	 <line x1="1138.0645161290322" y1="52.0" x2="1161.2903225806451" y2="50.0" stroke="black" stroke-width="1.0" />
	<line x1="1045.1612903225805" y1="50.0" x2="1335.483870967742" y2="250.0" stroke="black" stroke-width="1.0" />
	 <line x1="1329.6774193548385" y1="240.0" x2="1335.483870967742" y2="250.0" stroke="black" stroke-width="1.0" />
	 <line x1="1312.258064516129" y1="248.0" x2="1335.483870967742" y2="250.0" stroke="black" stroke-width="1.0" />
	<line x1="1045.1612903225805" y1="50.0" x2="1509.6774193548385" y2="300.0" stroke="black" stroke-width="1.0" />
	 <line x1="1503.8709677419354" y1="290.0" x2="1509.6774193548385" y2="300.0" stroke="black" stroke-width="1.0" />
	 <line x1="1486.4516129032259" y1="298.0" x2="1509.6774193548385" y2="300.0" stroke="black" stroke-width="1.0" />
	<line x1="1045.1612903225805" y1="50.0" x2="1364.516129032258" y2="350.0" stroke="black" stroke-width="1.0" />
	 <line x1="1358.7096774193546" y1="340.0" x2="1364.516129032258" y2="350.0" stroke="black" stroke-width="1.0" />
	 <line x1="1341.2903225806451" y1="348.0" x2="1364.516129032258" y2="350.0" stroke="black" stroke-width="1.0" />
	<line x1="1045.1612903225805" y1="50.0" x2="1364.516129032258" y2="250.0" stroke="black" stroke-width="1.0" />
	 <line x1="1358.7096774193546" y1="240.0" x2="1364.516129032258" y2="250.0" stroke="black" stroke-width="1.0" />
	 <line x1="1341.2903225806451" y1="248.0" x2="1364.516129032258" y2="250.0" stroke="black" stroke-width="1.0" />
	<line x1="1045.1612903225805" y1="50.0" x2="1422.5806451612902" y2="300.0" stroke="black" stroke-width="1.0" />
	 <line x1="1416.774193548387" y1="290.0" x2="1422.5806451612902" y2="300.0" stroke="black" stroke-width="1.0" />
	 <line x1="1399.3548387096776" y1="298.0" x2="1422.5806451612902" y2="300.0" stroke="black" stroke-width="1.0" />
	<line x1="1045.1612903225805" y1="50.0" x2="1364.516129032258" y2="350.0" stroke="black" stroke-width="1.0" />
	 <line x1="1358.7096774193546" y1="340.0" x2="1364.516129032258" y2="350.0" stroke="black" stroke-width="1.0" />
	 <line x1="1341.2903225806451" y1="348.0" x2="1364.516129032258" y2="350.0" stroke="black" stroke-width="1.0" />
	<line x1="1074.1935483870968" y1="200.0" x2="1190.3225806451612" y2="50.0" stroke="black" stroke-width="1.0" />
	 <line x1="1184.516129032258" y1="60.0" x2="1190.3225806451612" y2="50.0" stroke="black" stroke-width="1.0" />
	 <line x1="1167.0967741935485" y1="52.0" x2="1190.3225806451612" y2="50.0" stroke="black" stroke-width="1.0" />
	<line x1="1103.225806451613" y1="50.0" x2="1625.8064516129032" y2="250.0" stroke="black" stroke-width="1.0" />
	 <line x1="1619.9999999999998" y1="240.0" x2="1625.8064516129032" y2="250.0" stroke="black" stroke-width="1.0" />
	 <line x1="1602.5806451612902" y1="248.0" x2="1625.8064516129032" y2="250.0" stroke="black" stroke-width="1.0" />
	<line x1="1103.225806451613" y1="50.0" x2="1219.3548387096773" y2="300.0" stroke="black" stroke-width="1.0" />
	 <line x1="1213.5483870967741" y1="290.0" x2="1219.3548387096773" y2="300.0" stroke="black" stroke-width="1.0" />
	 <line x1="1196.1290322580646" y1="298.0" x2="1219.3548387096773" y2="300.0" stroke="black" stroke-width="1.0" />
	<line x1="1103.225806451613" y1="50.0" x2="1393.5483870967741" y2="350.0" stroke="black" stroke-width="1.0" />
	 <line x1="1387.7419354838707" y1="340.0" x2="1393.5483870967741" y2="350.0" stroke="black" stroke-width="1.0" />
	 <line x1="1370.3225806451612" y1="348.0" x2="1393.5483870967741" y2="350.0" stroke="black" stroke-width="1.0" />
	<line x1="1103.225806451613" y1="50.0" x2="1480.6451612903224" y2="250.0" stroke="black" stroke-width="1.0" />
	 <line x1="1474.8387096774193" y1="240.0" x2="1480.6451612903224" y2="250.0" stroke="black" stroke-width="1.0" />
	 <line x1="1457.4193548387098" y1="248.0" x2="1480.6451612903224" y2="250.0" stroke="black" stroke-width="1.0" />
	<line x1="1103.225806451613" y1="50.0" x2="1625.8064516129032" y2="300.0" stroke="black" stroke-width="1.0" />
	 <line x1="1619.9999999999998" y1="290.0" x2="1625.8064516129032" y2="300.0" stroke="black" stroke-width="1.0" />
	 <line x1="1602.5806451612902" y1="298.0" x2="1625.8064516129032" y2="300.0" stroke="black" stroke-width="1.0" />
	<line x1="1103.225806451613" y1="50.0" x2="1306.4516129032259" y2="350.0" stroke="black" stroke-width="1.0" />
	 <line x1="1300.6451612903224" y1="340.0" x2="1306.4516129032259" y2="350.0" stroke="black" stroke-width="1.0" />
	 <line x1="1283.225806451613" y1="348.0" x2="1306.4516129032259" y2="350.0" stroke="black" stroke-width="1.0" />
	<line x1="1161.2903225806451" y1="50.0" x2="1422.5806451612902" y2="250.0" stroke="black" stroke-width="1.0" />
	 <line x1="1416.774193548387" y1="240.0" x2="1422.5806451612902" y2="250.0" stroke="black" stroke-width="1.0" />
	 <line x1="1399.3548387096776" y1="248.0" x2="1422.5806451612902" y2="250.0" stroke="black" stroke-width="1.0" />
	<line x1="1161.2903225806451" y1="50.0" x2="1538.7096774193549" y2="300.0" stroke="black" stroke-width="1.0" />
	 <line x1="1532.9032258064515" y1="290.0" x2="1538.7096774193549" y2="300.0" stroke="black" stroke-width="1.0" />
	 <line x1="1515.483870967742" y1="298.0" x2="1538.7096774193549" y2="300.0" stroke="black" stroke-width="1.0" />
	<line x1="1161.2903225806451" y1="50.0" x2="1596.774193548387" y2="350.0" stroke="black" stroke-width="1.0" />
	 <line x1="1590.9677419354837" y1="340.0" x2="1596.774193548387" y2="350.0" stroke="black" stroke-width="1.0" />
	 <line x1="1573.5483870967741" y1="348.0" x2="1596.774193548387" y2="350.0" stroke="black" stroke-width="1.0" />
	<line x1="1161.2903225806451" y1="50.0" x2="1364.516129032258" y2="250.0" stroke="black" stroke-width="1.0" />
	 <line x1="1358.7096774193546" y1="240.0" x2="1364.516129032258" y2="250.0" stroke="black" stroke-width="1.0" />
	 <line x1="1341.2903225806451" y1="248.0" x2="1364.516129032258" y2="250.0" stroke="black" stroke-width="1.0" />
	<line x1="1161.2903225806451" y1="50.0" x2="1538.7096774193549" y2="300.0" stroke="black" stroke-width="1.0" />
	 <line x1="1532.9032258064515" y1="290.0" x2="1538.7096774193549" y2="300.0" stroke="black" stroke-width="1.0" />
	 <line x1="1515.483870967742" y1="298.0" x2="1538.7096774193549" y2="300.0" stroke="black" stroke-width="1.0" />
	<line x1="1161.2903225806451" y1="50.0" x2="1480.6451612903224" y2="350.0" stroke="black" stroke-width="1.0" />
	 <line x1="1474.8387096774193" y1="340.0" x2="1480.6451612903224" y2="350.0" stroke="black" stroke-width="1.0" />
	 <line x1="1457.4193548387098" y1="348.0" x2="1480.6451612903224" y2="350.0" stroke="black" stroke-width="1.0" />
	<line x1="1190.3225806451612" y1="50.0" x2="1451.6129032258063" y2="250.0" stroke="black" stroke-width="1.0" />
	 <line x1="1445.8064516129032" y1="240.0" x2="1451.6129032258063" y2="250.0" stroke="black" stroke-width="1.0" />
	 <line x1="1428.3870967741937" y1="248.0" x2="1451.6129032258063" y2="250.0" stroke="black" stroke-width="1.0" />
	<line x1="1190.3225806451612" y1="50.0" x2="1538.7096774193549" y2="300.0" stroke="black" stroke-width="1.0" />
	 <line x1="1532.9032258064515" y1="290.0" x2="1538.7096774193549" y2="300.0" stroke="black" stroke-width="1.0" />
	 <line x1="1515.483870967742" y1="298.0" x2="1538.7096774193549" y2="300.0" stroke="black" stroke-width="1.0" />
	<line x1="1190.3225806451612" y1="50.0" x2="1335.483870967742" y2="350.0" stroke="black" stroke-width="1.0" />
	 <line x1="1329.6774193548385" y1="340.0" x2="1335.483870967742" y2="350.0" stroke="black" stroke-width="1.0" />
	 <line x1="1312.258064516129" y1="348.0" x2="1335.483870967742" y2="350.0" stroke="black" stroke-width="1.0" />
	<line x1="1219.3548387096773" y1="50.0" x2="1741.9354838709678" y2="250.0" stroke="black" stroke-width="1.0" />
	 <line x1="1736.1290322580644" y1="240.0" x2="1741.9354838709678" y2="250.0" stroke="black" stroke-width="1.0" />
	 <line x1="1718.7096774193549" y1="248.0" x2="1741.9354838709678" y2="250.0" stroke="black" stroke-width="1.0" />
	<line x1="1219.3548387096773" y1="50.0" x2="1248.3870967741934" y2="300.0" stroke="black" stroke-width="1.0" />
	 <line x1="1242.5806451612902" y1="290.0" x2="1248.3870967741934" y2="300.0" stroke="black" stroke-width="1.0" />
	 <line x1="1225.1612903225807" y1="298.0" x2="1248.3870967741934" y2="300.0" stroke="black" stroke-width="1.0" />
	<line x1="1219.3548387096773" y1="50.0" x2="1451.6129032258063" y2="350.0" stroke="black" stroke-width="1.0" />
	 <line x1="1445.8064516129032" y1="340.0" x2="1451.6129032258063" y2="350.0" stroke="black" stroke-width="1.0" />
	 <line x1="1428.3870967741937" y1="348.0" x2="1451.6129032258063" y2="350.0" stroke="black" stroke-width="1.0" />

	<text y="75.0" x="116.12903225806451" stroke="red">p1a(0,l1)</text>
	<text y="100.0" x="203.2258064516129" stroke="red">p1a(0,l1)</text>
	<text y="125.0" x="246.77419354838707" stroke="red">p1a(0,l1)</text>
	<text y="150.0" x="72.58064516129032" stroke="red">p(1,m0)</text>
	<text y="150.0" x="72.58064516129032" stroke="red">p(2,m1)</text>
	<text y="75.0" x="217.74193548387098" stroke="red">p1b(0,l1)</text>
	<text y="150.0" x="348.38709677419354" stroke="red">p(3,m2)</text>
	<text y="150.0" x="420.96774193548384" stroke="red">p(4,m3)</text>
	<text y="100.0" x="362.9032258064516" stroke="red">p1b(0,l1)</text>
	<text y="75.0" x="479.0322580645161" stroke="red">p2a(1,m0)</text>
	<text y="100.0" x="638.7096774193549" stroke="red">p2a(1,m0)</text>
	<text y="125.0" x="624.1935483870967" stroke="red">p2a(1,m0)</text>
	<text y="75.0" x="609.6774193548387" stroke="red">p2a(2,m1)</text>
	<text y="100.0" x="508.06451612903226" stroke="red">p2a(2,m1)</text>
	<text y="125.0" x="595.1612903225806" stroke="red">p2a(2,m1)</text>
	<text y="125.0" x="566.1290322580645" stroke="red">p1b(0,l1)</text>
	<text y="75.0" x="638.7096774193549" stroke="red">p2a(3,m2)</text>
	<text y="100.0" x="682.258064516129" stroke="red">p2a(3,m2)</text>
	<text y="125.0" x="595.1612903225806" stroke="red">p2a(3,m2)</text>
	<text y="75.0" x="667.741935483871" stroke="red">p2b(0,l1)</text>
	<text y="75.0" x="711.2903225806451" stroke="red">p2a(4,m3)</text>
	<text y="100.0" x="711.2903225806451" stroke="red">p2a(4,m3)</text>
	<text y="125.0" x="841.9354838709677" stroke="red">p2a(4,m3)</text>
	<text y="100.0" x="725.8064516129032" stroke="red">p2b(0,l1)</text>
	<text y="125.0" x="783.8709677419355" stroke="red">p2b(0,l1)</text>
	<text y="75.0" x="943.5483870967741" stroke="red">p2b(0,l1)</text>
	<text y="125.0" x="929.0322580645161" stroke="red">p2b(0,l1)</text>
	<text y="75.0" x="958.0645161290322" stroke="red">p2b(0,l1)</text>
	<text y="100.0" x="827.4193548387096" stroke="red">p2b(0,l1)</text>
	<text y="75.0" x="1030.6451612903224" stroke="red">p2b(0,l1)</text>
	<text y="125.0" x="958.0645161290322" stroke="red">p2b(0,l1)</text>
	<text y="100.0" x="1016.1290322580645" stroke="red">p2b(0,l1)</text>
	<text y="100.0" x="1030.6451612903224" stroke="red">p2b(0,l1)</text>
	<text y="150.0" x="1190.3225806451612" stroke="red">D(2,m1)</text>
	<text y="175.0" x="1277.4193548387098" stroke="red">D(2,m1)</text>
	<text y="200.0" x="1204.8387096774193" stroke="red">D(2,m1)</text>
	<text y="150.0" x="1204.8387096774193" stroke="red">D(1,m0)</text>
	<text y="175.0" x="1233.8709677419354" stroke="red">D(1,m0)</text>
	<text y="200.0" x="1204.8387096774193" stroke="red">D(1,m0)</text>
	<text y="125.0" x="1132.258064516129" stroke="red">p2b(0,l1)</text>
	<text y="150.0" x="1364.516129032258" stroke="red">D(3,m2)</text>
	<text y="175.0" x="1161.2903225806451" stroke="red">D(3,m2)</text>
	<text y="200.0" x="1248.3870967741934" stroke="red">D(3,m2)</text>
	<text y="150.0" x="1291.9354838709678" stroke="red">D(4,m3)</text>
	<text y="175.0" x="1364.516129032258" stroke="red">D(4,m3)</text>
	<text y="200.0" x="1204.8387096774193" stroke="red">D(4,m3)</text>
	<text y="150.0" x="1291.9354838709678" stroke="red">D(3,m2)</text>
	<text y="175.0" x="1350.0" stroke="red">D(3,m2)</text>
	<text y="200.0" x="1379.032258064516" stroke="red">D(3,m2)</text>
	<text y="150.0" x="1262.9032258064515" stroke="red">D(1,m0)</text>
	<text y="175.0" x="1350.0" stroke="red">D(1,m0)</text>
	<text y="200.0" x="1320.967741935484" stroke="red">D(1,m0)</text>
	<text y="150.0" x="1320.967741935484" stroke="red">D(4,m3)</text>
	<text y="175.0" x="1364.516129032258" stroke="red">D(4,m3)</text>
	<text y="200.0" x="1262.9032258064515" stroke="red">D(4,m3)</text>
	<text y="150.0" x="1480.6451612903224" stroke="red">D(2,m1)</text>
	<text y="175.0" x="1233.8709677419354" stroke="red">D(2,m1)</text>
	<text y="200.0" x="1335.483870967742" stroke="red">D(2,m1)</text>
</svg>